<svg width="32" height="32" viewBox="0 0 32 32" fill="none" xmlns="http://www.w3.org/2000/svg">
<path d="M13.375 11.9596C12.9845 11.569 12.3513 11.569 11.9608 11.9596C11.5703 12.3501 11.5703 12.9832 11.9608 13.3738L14.5871 16L11.9608 18.6262C11.5703 19.0168 11.5703 19.6499 11.9608 20.0404C12.3514 20.431 12.9845 20.431 13.3751 20.0404L16.0013 17.4142L18.6275 20.0404C19.018 20.4309 19.6511 20.4309 20.0417 20.0404C20.4322 19.6499 20.4322 19.0167 20.0417 18.6262L17.4155 16L20.0417 13.3738C20.4322 12.9833 20.4322 12.3501 20.0417 11.9596C19.6512 11.5691 19.018 11.5691 18.6275 11.9596L16.0013 14.5858L13.375 11.9596Z" fill="#F8FAFC"/>
<path fill-rule="evenodd" clip-rule="evenodd" d="M16.0013 1.66669C8.08522 1.66669 1.66797 8.08394 1.66797 16C1.66797 23.9161 8.08522 30.3334 16.0013 30.3334C23.9174 30.3334 30.3346 23.9161 30.3346 16C30.3346 8.08394 23.9174 1.66669 16.0013 1.66669ZM3.66797 16C3.66797 9.18851 9.18979 3.66669 16.0013 3.66669C22.8128 3.66669 28.3346 9.18851 28.3346 16C28.3346 22.8115 22.8128 28.3334 16.0013 28.3334C9.18979 28.3334 3.66797 22.8115 3.66797 16Z" fill="#F8FAFC"/>
</svg>
